<mxfile host="app.diagrams.net" modified="2023-11-23T08:44:45.406Z" agent="Mozilla/5.0 (Windows NT 10.0; Win64; x64) AppleWebKit/537.36 (KHTML, like Gecko) Chrome/119.0.0.0 Safari/537.36" etag="ptL_Tq-kUOuIlZZUG9Ma" version="21.6.6" type="github">
  <diagram name="Page-1" id="OyQArzQsN552TnX4fKTb">
    <mxGraphModel dx="614" dy="269" grid="1" gridSize="10" guides="1" tooltips="1" connect="1" arrows="1" fold="1" page="1" pageScale="1" pageWidth="850" pageHeight="1100" math="0" shadow="0">
      <root>
        <mxCell id="0" />
        <mxCell id="1" parent="0" />
        <mxCell id="F4Vql7YvAEhdmLbfkwMK-1" value="Seminar Event" style="whiteSpace=wrap;html=1;aspect=fixed;" vertex="1" parent="1">
          <mxGeometry x="10" y="130" width="60" height="60" as="geometry" />
        </mxCell>
        <mxCell id="F4Vql7YvAEhdmLbfkwMK-4" value="" style="edgeStyle=orthogonalEdgeStyle;rounded=0;orthogonalLoop=1;jettySize=auto;html=1;" edge="1" parent="1" source="F4Vql7YvAEhdmLbfkwMK-2" target="F4Vql7YvAEhdmLbfkwMK-1">
          <mxGeometry relative="1" as="geometry" />
        </mxCell>
        <mxCell id="F4Vql7YvAEhdmLbfkwMK-2" value="CREATE" style="rounded=1;whiteSpace=wrap;html=1;" vertex="1" parent="1">
          <mxGeometry x="160" y="140" width="80" height="40" as="geometry" />
        </mxCell>
        <mxCell id="F4Vql7YvAEhdmLbfkwMK-3" value="" style="endArrow=classic;html=1;rounded=0;exitX=1;exitY=0.5;exitDx=0;exitDy=0;entryX=0;entryY=0.5;entryDx=0;entryDy=0;" edge="1" parent="1" source="F4Vql7YvAEhdmLbfkwMK-1" target="F4Vql7YvAEhdmLbfkwMK-2">
          <mxGeometry width="50" height="50" relative="1" as="geometry">
            <mxPoint x="400" y="320" as="sourcePoint" />
            <mxPoint x="300" y="170" as="targetPoint" />
          </mxGeometry>
        </mxCell>
        <mxCell id="F4Vql7YvAEhdmLbfkwMK-5" value="&lt;font style=&quot;font-size: 8px;&quot;&gt;BG staff create the seminar event&lt;/font&gt;" style="ellipse;whiteSpace=wrap;html=1;" vertex="1" parent="1">
          <mxGeometry x="80" y="50" width="90" height="50" as="geometry" />
        </mxCell>
        <mxCell id="F4Vql7YvAEhdmLbfkwMK-6" value="" style="endArrow=none;dashed=1;html=1;rounded=0;entryX=0.458;entryY=1.075;entryDx=0;entryDy=0;entryPerimeter=0;" edge="1" parent="1" target="F4Vql7YvAEhdmLbfkwMK-5">
          <mxGeometry width="50" height="50" relative="1" as="geometry">
            <mxPoint x="100" y="160" as="sourcePoint" />
            <mxPoint x="310" y="160" as="targetPoint" />
          </mxGeometry>
        </mxCell>
      </root>
    </mxGraphModel>
  </diagram>
</mxfile>
